<svg xmlns="http://www.w3.org/2000/svg" width="600" height="714.502">
  <ellipse cx="300" cy="299" rx="300" ry="299" transform="translate(0 114.502)" fill="#faefe9"/>
  <g transform="translate(262.279 -96.498)">
    <rect width="19.167" height="52.249" rx="6.33" transform="translate(48.403 199.29)"/>
    <circle cx="19.228" cy="19.228" transform="translate(38.759 268.692)" fill="#fbdc8e" r="19.228"/>
    <path d="M57.987 229.948A57.972 57.972 0 000 287.92h115.958a57.972 57.972 0 00-57.971-57.972z" fill="#ab8de5"/>
    <path stroke-width="2" stroke="#000" stroke-linecap="round" stroke-linejoin="round" fill="none" d="M57.987 210.327L58.221 97.5"/>
  </g>
  <g transform="translate(363.606 205.482)">
    <rect width="224.771" height="4.875" rx="1.23" transform="translate(0 96.806)" fill="#d8d8d8"/>
    <rect width="21.181" height="96.806" rx="2.56" transform="translate(77.926)" fill="#969696"/>
    <rect width="10.598" height="74.111" rx="2.13" transform="translate(99.107 22.695)" fill="#d8d8d8"/>
    <rect width="10.598" height="74.111" rx="2.06" transform="translate(109.705 22.695)" fill="#969696"/>
    <rect width="10.598" height="74.111" rx="2.2" transform="rotate(-24.66 130.215 -255.01)" fill="#d8d8d8"/>
    <circle cx="5.92" cy="5.92" transform="translate(82.589 60.47)" fill="#d8d8d8" r="5.92"/>
    <rect width="13.566" height="2.846" rx=".94" transform="translate(81.742 75.837)" fill="#d8d8d8"/>
    <rect width="13.566" height="2.846" rx=".94" transform="translate(81.742 83.134)" fill="#d8d8d8"/>
    <rect width="2.21" height="53.929" rx=".73" transform="translate(103.301 32.778)" fill="#969696"/>
    <rect width="17.018" height="7.54" rx="2.49" transform="translate(45.769 99.244)" fill="#d8d8d8"/>
    <rect width="17.018" height="7.54" rx="2.49" transform="translate(161.984 99.244)" fill="#d8d8d8"/>
  </g>
  <g transform="translate(306.84 397.07)">
    <path d="M133.32 67.18c28.766 5.466 23.634 177.14-31.582 166.753-52.143-9.855-3.513-173.369 31.582-166.753z"/>
    <path d="M7.021 88.467c22.892-12.945 118.714 107.631 74.883 132.416C40.497 244.308-20.852 104.228 7.021 88.467z" fill="#fbdc8e"/>
    <path d="M123.672 316.92h-57.8a9.463 9.463 0 01-9.4-8.418l-7.3-65.542a9.463 9.463 0 019.4-10.507h72.1a9.448 9.448 0 019.4 10.462l-6.98 65.542a9.478 9.478 0 01-9.42 8.463z" fill="#969696"/>
    <path d="M149.562.351c21.908 6.374 5.117 138.941-36.836 126.693C73.123 115.522 122.904-7.398 149.562.351z" fill="#ab8de5"/>
    <path d="M185.69 105.788c15.14 13.066-46.45 112.885-75.549 87.813-27.48-23.574 57.063-103.71 75.549-87.813z" fill="#fbdc8e"/>
    <path d="M94.925 14.144c32.794 0 62.816 209.373 0 209.373-59.32 0-39.925-209.373 0-209.373z" fill="#78e5e1"/>
    <rect width="127.631" height="23.437" rx="4.05" transform="translate(30.973 218.203)" fill="#d8d8d8"/>
  </g>
  <g transform="translate(132.326 256.267)">
    <path d="M117.067 441.516c0 1.953-1.151 14.307 1.135 15.443s27.449 1.832 28.585.7 1.832-3.543.8-4.239-10.734-2.619-12.112-3.543-3.149-5.753-2.468-8.357M12.711 174.793c-.257 3.179 18.4 112.34 18.274 115.852S2.411 426.225 2.411 426.225l15.519 6.934s52.43-111.053 53.308-118.093-50.28-140.303-58.527-140.273z" fill="#1f161e"/>
    <path d="M12.707 174.793c1.181 3.331 103.044 267.98 103.044 267.98h20.056l-71.472-283.12z" fill="#73e5e2"/>
    <path d="M28.952 54.974c32.657 0 36.336 59.228 36.336 67.57s1.075 34.474-.908 37.063c-2.877 1.363-48.6 16.654-51.628 15.14s-26.329-119.773 16.2-119.773z" fill="#ab8fe2"/>
    <path d="M13.055 121.742c0 2.68-.59 20.288 3.83 23.694s40.091 7.812 40.091 12.475c0 2 .651 4.148-3.755 5.617 2.907-.984 11.113-3.921 11.113-3.921a11.536 11.536 0 00.924-4.966c-.787-.709-52.203-32.899-52.203-32.899z" fill="#1f161e"/>
    <path d="M37.264 42.983l-14.141-3.028s-1.575 17.578-1.756 19.092 11.431 2.876 11.612 1.518 4.285-17.582 4.285-17.582z" fill="#f8cdba"/>
    <path d="M22.669 44.966c0-.333 4.542 2.634 6.359 3.528s-6.586 1.7-7.131 4.966c.23-2.423.742-7.949.772-8.494z" fill="#1f161e"/>
    <circle cx="18.395" cy="18.395" transform="translate(16.189 12.551)" fill="#f8cdba" r="18.395"/>
    <path d="M34.266 106.36c-.606 3.028-1.756 18.456-1.711 22.952 1.908 4.209 33.081 17.441 39.591 18.532 2.574-.076 4-1.514 5.6-1.514 3.815.076 14.035-.575 14.035.53s-3.028 8.872-6.813 8.872c-6.374 0-8.554-1.665-10.962-1.817-3.391-.212-4.663 1.014-7.676.818s-41.045-6.283-47.51-15.927c-6.707-10.023-8.085-35.716-8.055-36.942 1.729.468 20.972 4.496 23.501 4.496z" fill="#f8cdba"/>
    <path d="M10.769 101.893c-.606-11.189 1.06-33.2 14.277-31.446" fill="none" stroke="#1f161e" stroke-linecap="round" stroke-miterlimit="10" stroke-width=".55"/>
    <path d="M4.228 426.437c-.575 1.257-5.829 12.2-3.74 15.943s17.381 11.249 19.213 10.6 2.21-2.665.772-5.148-7.07-5.011-7.782-7.176 1.242-8.024 3.27-9.3" fill="#1f161e"/>
    <ellipse cx="3.618" cy="1.877" rx="3.618" ry="1.877" transform="translate(38.218 34.837)" fill="#fa9e9f"/>
    <path d="M21.367 43.482c-3.285-1.514-7.4-8.085-7.4-17 0-23.089 27.918-22.71 30.75-23.558S53.221 0 54.599 0c4.633 0 6.541 12.657 6.541 14.7 0 7.979-6.6 12.279-8.509 12.536a40.65 40.65 0 00-3.21-6.45c-1.257.681-19.909 7.57-23.119 8.342.939 3.438-5.42 11.357-4.935 14.354z" fill="#1f161e"/>
    <path d="M52.465 27.252c1.347 0 3.316 5.3 3.028 6.5s-3.255 2.12-4.436 2.074-.531-8.574 1.408-8.574z" fill="#f8cdba"/>
    <path d="M40.761 41.272a2.574 2.574 0 002.17 2.54" fill="none" stroke="#1f161e" stroke-linecap="round" stroke-miterlimit="10" stroke-width=".55"/>
    <circle cx="4.724" cy="4.724" transform="translate(19.868 25.148)" fill="#f8cdba" r="4.724"/>
  </g>
  <g transform="translate(177.747 359.332)">
    <path d="M104.249 44.44H38.388L50.32 3.411a4.784 4.784 0 014.613-3.41h55.887a4.72 4.72 0 014.613 5.987z" fill="#969696"/>
    <circle cx="4.03" cy="4.03" transform="translate(75.373 18.19)" fill="#fff" r="4.03"/>
    <path d="M0 41.563h46.212v2.883H0z" fill="#969696"/>
  </g>
</svg>
